<svg width="264" height="234" viewBox="0 0 264 234" fill="none" xmlns="http://www.w3.org/2000/svg">
<path d="M229.059 198.581C231.805 197.971 233.731 194.628 235.941 193.264C237.49 189.696 239.283 186.555 241.67 183.213C243.908 180.079 246.093 178.111 247.265 174.455C248.393 170.938 247.892 167.69 248.766 164.196C249.852 159.851 249.617 155.342 250.955 151.059C252.112 147.358 253.435 143.328 253.51 139.422C253.819 123.36 257.68 107.449 252.82 91.6566C250.729 84.8579 249.001 78.8712 244.346 73.329C240.215 68.4118 235.443 62.1441 229.83 58.8535C224.026 55.4509 219.322 49.9159 214.868 44.9051C209.384 38.7362 202.843 34.1138 196.905 28.4833C189.34 21.3096 179.738 17.9692 169.9 15.3458C165.024 14.0454 160.33 12.0609 155.668 10.1962C150.996 8.32728 146.234 8.77707 141.274 8.77707C138.065 8.77707 136.044 9.7644 133.002 10.5612C129.232 11.5485 125.391 11.1993 121.649 12.0209C107.868 15.046 95.2818 20.9705 82.2363 26.2937C72.9647 30.0769 63.1312 32.7299 53.6096 35.8224C44.8663 38.6621 34.4198 40.0725 27.0914 45.9999C21.1094 50.8383 15.8829 56.1335 12.0077 62.8271C9.00564 68.0124 9.0064 74.3812 9.0071 80.2002L9.00712 80.4654C9.00712 88.7929 9.55269 97.2252 10.9534 105.443C13.8173 122.244 19.3858 139.811 27.2536 154.992C36.8721 173.552 45.8363 195.719 65.4901 206.082C70.9364 208.954 76.8064 210.968 82.2363 213.867C85.8462 215.795 89.1273 218.043 93.0219 219.382C100.538 221.966 109.323 222.132 117.269 222.95C128.817 224.139 140.704 224.317 152.303 224.653C159.618 224.865 167.717 225.719 175.009 224.41C179.331 223.634 186.699 223.042 190.174 220.436C194.382 217.281 199.181 214.809 203.717 212.245C208.684 209.438 212.695 205.618 217.706 202.919C221.032 201.129 225.412 199.391 229.059 198.581Z" fill="#F35252"/>
<path d="M76.8838 170.076C78.8511 162.509 83.0461 156.404 86.9396 149.802C88.6833 146.845 91.0424 144.299 92.6163 141.246C95.6556 135.352 97.952 129.207 101.294 123.446C111.814 105.307 115.297 84.0356 126.19 65.9493C128.905 61.4404 131.749 56.9067 134.948 52.7308C136.535 50.6594 137.724 46.7078 139.692 45.0673C140.247 44.6053 144.223 54.8145 144.801 55.9341C147.413 60.9938 149.916 66.1239 152.465 71.2205C159.036 84.3632 162.283 98.383 164.872 112.741C165.825 118.025 167.473 123.289 168.887 128.474C170.135 133.051 173.704 136.983 175.415 141.449C177.129 145.926 177.949 150.702 179.794 155.235C181.135 158.531 181.983 160.304 181.983 163.872C181.983 167.683 184.903 168.654 184.903 172.265" stroke="white" stroke-width="21" stroke-linecap="round"/>
<path d="M103.159 121.175C106.559 122.775 109.945 122.355 113.377 123.689C115.957 124.693 118.342 124.825 121.081 124.825C127.248 124.825 132.965 125.016 138.922 123.527C148.262 121.192 159.907 122.36 168.116 118.256" stroke="white" stroke-width="21" stroke-linecap="round"/>
</svg>